<svg width="672" height="120" viewBox="0 0 672 120" fill="none" xmlns="http://www.w3.org/2000/svg">
<g clip-path="url(#clip0_12397_2518)">
<path d="M0 20C0 8.95431 8.95431 0 20 0H99C110.046 0 119 8.95431 119 20V100C119 111.046 110.046 120 99 120H20C8.9543 120 0 111.046 0 100V20Z" fill="#F45513"/>
<path d="M82.624 29.8462C95.2296 49.9975 125.649 94.2073 146.481 109.835L56.6455 153.376L51.3584 132.97C47.9505 115.175 39.07 74.66 30.8105 54.9595C34.766 56.947 43.4802 61.8186 46.6924 65.4067C51.8455 60.8419 66.1044 51.0369 81.918 48.3335C81.2694 43.6712 80.5027 33.447 82.624 29.8462ZM90.5303 86.3384C89.6002 84.0831 86.139 84.0736 82.4707 85.5864C78.8026 87.0992 76.1531 89.8664 77.083 92.1216C78.0131 94.3768 82.1706 95.2661 85.8389 93.7534C89.507 92.2407 91.46 88.5937 90.5303 86.3384ZM69.0146 81.9985C67.9043 79.161 65.4225 77.4793 63.4717 78.2427C61.521 79.0061 60.84 81.9248 61.9502 84.7622C63.0606 87.5998 65.5423 89.2815 67.4932 88.5181C69.4437 87.7545 70.1247 84.8358 69.0146 81.9985ZM91.9121 71.7085C90.8017 68.8709 88.32 67.1892 86.3691 67.9526C84.4187 68.7162 83.7376 71.6349 84.8477 74.4722C85.958 77.3097 88.4398 78.9914 90.3906 78.228C92.3413 77.4646 93.0224 74.546 91.9121 71.7085Z" fill="white"/>
</g>
<path d="M631.697 56.7627H626.303V40.5786H644.105V48.1312H645.724C647.666 45.6856 649.932 43.8154 652.521 42.5207C655.182 41.226 657.988 40.5786 660.937 40.5786H671.834V55.1443H660.289C651.298 55.1443 646.803 60.6109 646.803 71.5442V99.9203H631.697V56.7627Z" fill="#F45513"/>
<path d="M600.955 71.1128V69.3865C600.955 67.2286 600.524 65.2505 599.66 63.4523C598.869 61.5821 597.718 59.9637 596.208 58.5971C594.769 57.2304 593.043 56.1515 591.029 55.3603C589.015 54.569 586.857 54.1734 584.555 54.1734C579.664 54.1734 575.78 55.648 572.903 58.5971C570.026 61.4743 568.587 65.3584 568.587 70.2496C568.587 75.1408 570.026 79.061 572.903 82.0101C575.78 84.8872 579.664 86.3258 584.555 86.3258C586.857 86.3258 589.015 85.9302 591.029 85.139C593.043 84.3478 594.769 83.2688 596.208 81.9022C597.718 80.5355 598.869 78.9531 599.66 77.1548C600.524 75.2847 600.955 73.2707 600.955 71.1128ZM616.06 19V83.7364H621.455V99.9205H602.574V92.3679H600.955C598.438 95.3889 595.596 97.5828 592.432 98.9494C589.267 100.316 585.311 100.999 580.563 100.999C576.751 100.999 573.155 100.208 569.774 98.6257C566.393 97.0433 563.444 94.8854 560.927 92.1521C558.481 89.3469 556.539 86.0741 555.1 82.3338C553.662 78.5934 552.942 74.5654 552.942 70.2496C552.942 65.9339 553.662 61.9058 555.1 58.1655C556.539 54.4252 558.481 51.1884 560.927 48.455C563.444 45.6498 566.393 43.456 569.774 41.8735C573.155 40.2911 576.751 39.4999 580.563 39.4999C584.807 39.4999 588.404 40.0393 591.353 41.1183C594.302 42.1972 596.963 43.9235 599.337 46.2972H600.955V19H616.06Z" fill="#F45513"/>
<path d="M497.89 70.0345C497.89 72.4081 498.285 74.602 499.077 76.616C499.868 78.5581 500.983 80.2844 502.421 81.7949C503.932 83.2335 505.694 84.3844 507.708 85.2475C509.722 86.0387 511.916 86.4344 514.29 86.4344C519.181 86.4344 523.065 84.9958 525.942 82.1186C528.819 79.1695 530.258 75.2493 530.258 70.3582C530.258 65.395 528.783 61.4389 525.834 58.4898C522.957 55.5407 519.037 54.0662 514.074 54.0662C509.255 54.0662 505.37 55.5407 502.421 58.4898C499.472 61.4389 497.962 65.2871 497.89 70.0345ZM482.245 70.2503C482.245 65.7187 483 61.5828 484.511 57.8425C486.093 54.0302 488.251 50.7934 490.985 48.132C493.79 45.3987 497.134 43.2768 501.019 41.7663C504.903 40.2557 509.183 39.5005 513.858 39.5005C518.605 39.5005 522.921 40.2557 526.805 41.7663C530.761 43.2768 534.142 45.3987 536.947 48.132C539.753 50.7934 541.946 54.0302 543.529 57.8425C545.111 61.5828 545.903 65.7187 545.903 70.2503C545.903 74.7818 545.111 78.9537 543.529 82.766C541.946 86.5782 539.753 89.851 536.947 92.5843C534.142 95.2457 530.761 97.3316 526.805 98.8422C522.921 100.281 518.605 101 513.858 101C509.183 101 504.903 100.245 501.019 98.7343C497.134 97.2238 493.79 95.1378 490.985 92.4764C488.251 89.7431 486.093 86.5063 484.511 82.766C483 78.9537 482.245 74.7818 482.245 70.2503Z" fill="black"/>
<path d="M458.351 19H473.456V99.9205H458.351V19Z" fill="black"/>
<path d="M391.253 56.7635H385.858V40.5794H403.661V48.132H405.279C407.581 45.3987 410.458 43.2768 413.911 41.7663C417.435 40.2557 421.14 39.5005 425.024 39.5005C428.405 39.5005 431.534 40.2198 434.411 41.6584C437.288 43.025 439.769 44.9671 441.855 47.4846C444.013 49.9302 445.668 52.8434 446.819 56.224C448.041 59.5328 448.653 63.1652 448.653 67.1213V99.9211H433.548V71.545C433.548 65.8626 432.397 61.5468 430.095 58.5977C427.793 55.5767 424.377 54.0662 419.845 54.0662C415.529 54.0662 412.185 55.5767 409.811 58.5977C407.509 61.6187 406.358 65.9345 406.358 71.545V99.9211H391.253V56.7635Z" fill="black"/>
<path d="M305.75 99.9203L286.977 40.5786H303.808L314.166 73.2705H315.676L326.466 40.5786H341.571L352.36 73.2705H353.871L364.229 40.5786H381.06L362.287 99.9203H345.131L334.774 68.5231H333.263L322.905 99.9203H305.75Z" fill="black"/>
<path d="M237.849 70.0345C237.849 72.4081 238.244 74.602 239.036 76.616C239.827 78.5581 240.942 80.2844 242.38 81.7949C243.891 83.2335 245.653 84.3844 247.667 85.2475C249.681 86.0387 251.875 86.4344 254.249 86.4344C259.14 86.4344 263.024 84.9958 265.901 82.1186C268.778 79.1695 270.217 75.2493 270.217 70.3582C270.217 65.395 268.742 61.4389 265.793 58.4898C262.916 55.5407 258.996 54.0662 254.033 54.0662C249.214 54.0662 245.329 55.5407 242.38 58.4898C239.431 61.4389 237.921 65.2871 237.849 70.0345ZM222.204 70.2503C222.204 65.7187 222.959 61.5828 224.47 57.8425C226.052 54.0302 228.21 50.7934 230.944 48.132C233.749 45.3987 237.093 43.2768 240.978 41.7663C244.862 40.2557 249.142 39.5005 253.817 39.5005C258.564 39.5005 262.88 40.2557 266.764 41.7663C270.72 43.2768 274.101 45.3987 276.906 48.132C279.712 50.7934 281.905 54.0302 283.488 57.8425C285.07 61.5828 285.862 65.7187 285.862 70.2503C285.862 74.7818 285.07 78.9537 283.488 82.766C281.905 86.5782 279.712 89.851 276.906 92.5843C274.101 95.2457 270.72 97.3316 266.764 98.8422C262.88 100.281 258.564 101 253.817 101C249.142 101 244.862 100.245 240.978 98.7343C237.093 97.2238 233.749 95.1378 230.944 92.4764C228.21 89.7431 226.052 86.5063 224.47 82.766C222.959 78.9537 222.204 74.7818 222.204 70.2503Z" fill="black"/>
<path d="M151 26.5527H175.168C188.763 26.5527 198.977 29.6097 205.81 35.7237C212.715 41.8377 216.168 51.0087 216.168 63.2367C216.168 68.9191 215.233 74.062 213.363 78.6655C211.493 83.1971 208.795 87.0453 205.271 90.2102C201.746 93.3031 197.43 95.7128 192.323 97.4391C187.288 99.0934 181.57 99.9206 175.168 99.9206H151V26.5527ZM167.184 42.1974V84.276H175.168C182.865 84.276 188.835 82.4418 193.079 78.7734C197.322 75.105 199.444 69.8901 199.444 63.1288C199.444 56.4394 197.322 51.2964 193.079 47.6999C188.907 44.0316 182.937 42.1974 175.168 42.1974H167.184Z" fill="black"/>
<defs>
<clipPath id="clip0_12397_2518">
<path d="M0 20C0 8.95431 8.95431 0 20 0H99C110.046 0 119 8.95431 119 20V100C119 111.046 110.046 120 99 120H20C8.9543 120 0 111.046 0 100V20Z" fill="white"/>
</clipPath>
</defs>
</svg>
